<svg width="257" height="150" viewBox="0 0 257 150" fill="none" xmlns="http://www.w3.org/2000/svg">
<g opacity="0.4" clip-path="url(#clip0_9_18)">
<path d="M48.2804 148.841C74.945 148.841 96.5608 127.225 96.5608 100.561C96.5608 73.8963 74.945 52.2804 48.2804 52.2804C21.6159 52.2804 0 73.8963 0 100.561C0 127.225 21.6159 148.841 48.2804 148.841Z" fill="#0067FF"/>
<path d="M131.76 149.248C158.424 149.248 180.04 127.632 180.04 100.968C180.04 74.3033 158.424 52.6874 131.76 52.6874C105.095 52.6874 83.4795 74.3033 83.4795 100.968C83.4795 127.632 105.095 149.248 131.76 149.248Z" fill="#0067FF"/>
<path d="M52.2804 144.841C78.945 144.841 100.561 123.225 100.561 96.5608C100.561 69.8963 78.945 48.2804 52.2804 48.2804C25.6159 48.2804 4 69.8963 4 96.5608C4 123.225 25.6159 144.841 52.2804 144.841Z" fill="#ADC2E1"/>
<path d="M100.561 96.5608C127.225 96.5608 148.841 74.945 148.841 48.2804C148.841 21.6159 127.225 0 100.561 0C73.8963 0 52.2804 21.6159 52.2804 48.2804C52.2804 74.945 73.8963 96.5608 100.561 96.5608Z" fill="#ADC2E1"/>
<path d="M100.561 0C87.7561 0.000296705 75.476 5.0872 66.4219 14.1417C57.3677 23.1962 52.2813 35.4765 52.2816 48.2812C52.2869 55.0947 53.7343 61.8299 56.5287 68.044C59.323 74.2582 63.4009 79.8105 68.4944 84.3359C60.637 75.5062 56.2916 64.1008 56.2816 52.2812C56.2813 39.4765 61.3677 27.1962 70.4219 18.1417C79.476 9.08721 91.7561 4.0003 104.561 4C116.388 4.00059 127.803 8.3422 136.641 16.2012C132.112 11.1066 126.555 7.02895 120.336 4.23654C114.117 1.44413 107.378 0.000289508 100.561 0Z" fill="#FF9956"/>
<path d="M135.76 147.248C162.424 147.248 184.04 125.632 184.04 98.9678C184.04 72.3033 162.424 50.6874 135.76 50.6874C109.095 50.6874 87.4795 72.3033 87.4795 98.9678C87.4795 125.632 109.095 147.248 135.76 147.248Z" fill="#ADC2E1"/>
<path d="M216.799 147.377C236.619 147.377 252.686 131.31 252.686 111.49C252.686 91.67 236.619 75.6029 216.799 75.6029C196.979 75.6029 180.912 91.67 180.912 111.49C180.912 131.31 196.979 147.377 216.799 147.377Z" fill="#0067FF"/>
<path d="M172.018 118.019C198.683 118.019 220.299 96.4028 220.299 69.7383C220.299 43.0738 198.683 21.4579 172.018 21.4579C145.354 21.4579 123.738 43.0738 123.738 69.7383C123.738 96.4028 145.354 118.019 172.018 118.019Z" fill="#ADC2E1"/>
<path d="M172.019 21.4579C165.679 21.4578 159.401 22.7065 153.543 25.1329C147.685 27.5592 142.362 31.1156 137.879 35.5989C133.396 40.0823 129.839 45.4048 127.413 51.2626C124.987 57.1204 123.738 63.3987 123.738 69.7391C123.743 76.2499 125.064 82.6925 127.622 88.6795C130.181 94.6664 133.924 100.074 138.627 104.577C130.342 95.6486 125.738 83.919 125.738 71.7391C125.738 65.3987 126.987 59.1204 129.413 53.2626C131.839 47.4048 135.396 42.0822 139.879 37.5989C144.362 33.1155 149.685 29.5591 155.543 27.1328C161.401 24.7065 167.679 23.4578 174.019 23.4579C186.334 23.4595 198.182 28.1666 207.14 36.6161C202.628 31.8302 197.185 28.0169 191.145 25.4103C185.106 22.8037 178.597 21.4587 172.019 21.4579Z" fill="#FF9956"/>
<path d="M220.799 147.377C240.619 147.377 256.686 131.31 256.686 111.49C256.686 91.67 240.619 75.6029 220.799 75.6029C200.979 75.6029 184.912 91.67 184.912 111.49C184.912 131.31 200.979 147.377 220.799 147.377Z" fill="#ADC2E1"/>
<path d="M220.668 75.6028C207.384 75.6066 195.189 82.9488 188.969 94.6868C195.495 84.0769 210.209 77.6104 222.666 77.6029C231.69 77.6025 240.384 81.0021 247.014 87.1243C240.222 79.7796 230.672 75.6034 220.668 75.6028Z" fill="#FF9956"/>
</g>
<defs>
<clipPath id="clip0_9_18">
<rect width="256.686" height="149.248" fill="white"/>
</clipPath>
</defs>
</svg>
